<svg id="visual" viewBox="0 0 900 600" width="900" height="600" xmlns="http://www.w3.org/2000/svg" xmlns:xlink="http://www.w3.org/1999/xlink" version="1.1"><g><g transform="translate(330 114)"><path d="M50.2 -2.9C50.2 18.8 25.1 37.5 0.9 37.5C-23.2 37.5 -46.4 18.8 -46.4 -2.9C-46.4 -24.5 -23.2 -49 0.9 -49C25.1 -49 50.2 -24.5 50.2 -2.9Z" fill="none" stroke="#00a53b" stroke-width="3"></path></g><g transform="translate(671 307)"><path d="M28 4.8C28 26.7 14 53.4 -3.5 53.4C-21 53.4 -41.9 26.7 -41.9 4.8C-41.9 -17.2 -21 -34.3 -3.5 -34.3C14 -34.3 28 -17.2 28 4.8Z" fill="none" stroke="#00a53b" stroke-width="3"></path></g><g transform="translate(455 368)"><path d="M40.7 -2.3C40.7 15.6 20.3 31.2 1.6 31.2C-17.1 31.2 -34.1 15.6 -34.1 -2.3C-34.1 -20.3 -17.1 -40.5 1.6 -40.5C20.3 -40.5 40.7 -20.3 40.7 -2.3Z" fill="none" stroke="#00a53b" stroke-width="3"></path></g><g transform="translate(69 582)"><path d="M47.6 -0.7C47.6 25.6 23.8 51.2 -0.6 51.2C-24.9 51.2 -49.9 25.6 -49.9 -0.7C-49.9 -27 -24.9 -53.9 -0.6 -53.9C23.8 -53.9 47.6 -27 47.6 -0.7Z" fill="none" stroke="#00a53b" stroke-width="3"></path></g><g transform="translate(53 380)"><path d="M47.8 1.5C47.8 20.2 23.9 40.5 -0.4 40.5C-24.6 40.5 -49.3 20.2 -49.3 1.5C-49.3 -17.3 -24.6 -34.7 -0.4 -34.7C23.9 -34.7 47.8 -17.3 47.8 1.5Z" fill="none" stroke="#00a53b" stroke-width="3"></path></g><g transform="translate(709 550)"><path d="M33.9 -1.9C33.9 14 16.9 28 0.6 28C-15.7 28 -31.5 14 -31.5 -1.9C-31.5 -17.9 -15.7 -35.8 0.6 -35.8C16.9 -35.8 33.9 -17.9 33.9 -1.9Z" fill="none" stroke="#00a53b" stroke-width="3"></path></g><g transform="translate(453 557)"><path d="M41.6 -1.4C41.6 15 20.8 30 -0.7 30C-22.1 30 -44.3 15 -44.3 -1.4C-44.3 -17.7 -22.1 -35.5 -0.7 -35.5C20.8 -35.5 41.6 -17.7 41.6 -1.4Z" fill="none" stroke="#00a53b" stroke-width="3"></path></g><g transform="translate(808 196)"><path d="M49.2 -0.1C49.2 21.5 24.6 43.1 1.5 43.1C-21.7 43.1 -43.4 21.5 -43.4 -0.1C-43.4 -21.8 -21.7 -43.6 1.5 -43.6C24.6 -43.6 49.2 -21.8 49.2 -0.1Z" fill="none" stroke="#00a53b" stroke-width="3"></path></g><g transform="translate(486 33)"><path d="M38.1 4.2C38.1 19.8 19 39.7 -0.8 39.7C-20.7 39.7 -41.3 19.8 -41.3 4.2C-41.3 -11.5 -20.7 -22.9 -0.8 -22.9C19 -22.9 38.1 -11.5 38.1 4.2Z" fill="none" stroke="#00a53b" stroke-width="3"></path></g><g transform="translate(242 282)"><path d="M40.1 1.9C40.1 19.3 20.1 38.5 1.8 38.5C-16.5 38.5 -33.1 19.3 -33.1 1.9C-33.1 -15.5 -16.5 -31 1.8 -31C20.1 -31 40.1 -15.5 40.1 1.9Z" fill="none" stroke="#00a53b" stroke-width="3"></path></g><g transform="translate(78 209)"><path d="M48.3 -0.8C48.3 14.7 24.1 29.5 1.4 29.5C-21.3 29.5 -42.6 14.7 -42.6 -0.8C-42.6 -16.2 -21.3 -32.5 1.4 -32.5C24.1 -32.5 48.3 -16.2 48.3 -0.8Z" fill="none" stroke="#00a53b" stroke-width="3"></path></g><g transform="translate(33 43)"><path d="M41.4 1.6C41.4 21.7 20.7 43.3 2.6 43.3C-15.4 43.3 -30.9 21.7 -30.9 1.6C-30.9 -18.5 -15.4 -37.1 2.6 -37.1C20.7 -37.1 41.4 -18.5 41.4 1.6Z" fill="none" stroke="#00a53b" stroke-width="3"></path></g></g></svg>